<mxfile host="app.diagrams.net" agent="Mozilla/5.0 (Windows NT 10.0; Win64; x64) AppleWebKit/537.36 (KHTML, like Gecko) Chrome/130.0.0.0 Safari/537.36" version="24.8.4">
  <diagram name="Page-1" id="WAZKlR_oNBcHiGNMMaey">
    <mxGraphModel dx="819" dy="426" grid="1" gridSize="10" guides="1" tooltips="1" connect="1" arrows="1" fold="1" page="1" pageScale="1" pageWidth="850" pageHeight="1100" math="0" shadow="0">
      <root>
        <mxCell id="0" />
        <mxCell id="1" parent="0" />
        <mxCell id="MlxZKVlWyXe7RY-4Fydd-83" value="" style="ellipse;whiteSpace=wrap;html=1;aspect=fixed;" vertex="1" parent="1">
          <mxGeometry x="440" y="240" width="40" height="40" as="geometry" />
        </mxCell>
        <mxCell id="MlxZKVlWyXe7RY-4Fydd-4" value="Sliding Mode" style="rounded=0;whiteSpace=wrap;html=1;" vertex="1" parent="1">
          <mxGeometry x="280" y="240" width="80" height="40" as="geometry" />
        </mxCell>
        <mxCell id="MlxZKVlWyXe7RY-4Fydd-5" value="Plant" style="rounded=0;whiteSpace=wrap;html=1;" vertex="1" parent="1">
          <mxGeometry x="560" y="240" width="80" height="40" as="geometry" />
        </mxCell>
        <mxCell id="MlxZKVlWyXe7RY-4Fydd-10" value="" style="edgeStyle=orthogonalEdgeStyle;rounded=0;orthogonalLoop=1;jettySize=auto;html=1;" edge="1" parent="1" source="MlxZKVlWyXe7RY-4Fydd-7" target="MlxZKVlWyXe7RY-4Fydd-4">
          <mxGeometry relative="1" as="geometry" />
        </mxCell>
        <mxCell id="MlxZKVlWyXe7RY-4Fydd-80" value="Error" style="edgeLabel;html=1;align=center;verticalAlign=middle;resizable=0;points=[];" vertex="1" connectable="0" parent="MlxZKVlWyXe7RY-4Fydd-10">
          <mxGeometry x="0.0679" y="-3" relative="1" as="geometry">
            <mxPoint x="-3" y="-13" as="offset" />
          </mxGeometry>
        </mxCell>
        <mxCell id="MlxZKVlWyXe7RY-4Fydd-7" value="" style="ellipse;whiteSpace=wrap;html=1;aspect=fixed;" vertex="1" parent="1">
          <mxGeometry x="160" y="240" width="40" height="40" as="geometry" />
        </mxCell>
        <mxCell id="MlxZKVlWyXe7RY-4Fydd-11" value="" style="endArrow=classic;html=1;rounded=0;entryX=0;entryY=0.5;entryDx=0;entryDy=0;" edge="1" parent="1" target="MlxZKVlWyXe7RY-4Fydd-7">
          <mxGeometry width="50" height="50" relative="1" as="geometry">
            <mxPoint x="80" y="260" as="sourcePoint" />
            <mxPoint x="150" y="259.5" as="targetPoint" />
          </mxGeometry>
        </mxCell>
        <mxCell id="MlxZKVlWyXe7RY-4Fydd-97" value="Reference Signal" style="edgeLabel;html=1;align=center;verticalAlign=middle;resizable=0;points=[];" vertex="1" connectable="0" parent="MlxZKVlWyXe7RY-4Fydd-11">
          <mxGeometry x="-0.4893" y="-1" relative="1" as="geometry">
            <mxPoint y="-12" as="offset" />
          </mxGeometry>
        </mxCell>
        <mxCell id="MlxZKVlWyXe7RY-4Fydd-12" value="" style="endArrow=classic;html=1;rounded=0;entryX=0.5;entryY=1;entryDx=0;entryDy=0;exitX=1;exitY=0.5;exitDx=0;exitDy=0;" edge="1" parent="1" source="MlxZKVlWyXe7RY-4Fydd-5" target="MlxZKVlWyXe7RY-4Fydd-7">
          <mxGeometry width="50" height="50" relative="1" as="geometry">
            <mxPoint x="720" y="280" as="sourcePoint" />
            <mxPoint x="280" y="310" as="targetPoint" />
            <Array as="points">
              <mxPoint x="680" y="260" />
              <mxPoint x="680" y="320" />
              <mxPoint x="180" y="320" />
            </Array>
          </mxGeometry>
        </mxCell>
        <mxCell id="MlxZKVlWyXe7RY-4Fydd-99" value="State Feedback" style="edgeLabel;html=1;align=center;verticalAlign=middle;resizable=0;points=[];" vertex="1" connectable="0" parent="MlxZKVlWyXe7RY-4Fydd-12">
          <mxGeometry x="0.2629" y="3" relative="1" as="geometry">
            <mxPoint x="84" y="-13" as="offset" />
          </mxGeometry>
        </mxCell>
        <mxCell id="MlxZKVlWyXe7RY-4Fydd-13" value="" style="endArrow=classic;html=1;rounded=0;exitX=1;exitY=0.5;exitDx=0;exitDy=0;" edge="1" parent="1" source="MlxZKVlWyXe7RY-4Fydd-5">
          <mxGeometry width="50" height="50" relative="1" as="geometry">
            <mxPoint x="690" y="250" as="sourcePoint" />
            <mxPoint x="720" y="260" as="targetPoint" />
          </mxGeometry>
        </mxCell>
        <mxCell id="MlxZKVlWyXe7RY-4Fydd-77" value="" style="group" vertex="1" connectable="0" parent="1">
          <mxGeometry x="430" y="130" width="60" height="60" as="geometry" />
        </mxCell>
        <mxCell id="MlxZKVlWyXe7RY-4Fydd-69" value="" style="ellipse;whiteSpace=wrap;html=1;aspect=fixed;" vertex="1" parent="MlxZKVlWyXe7RY-4Fydd-77">
          <mxGeometry width="60" height="60" as="geometry" />
        </mxCell>
        <mxCell id="MlxZKVlWyXe7RY-4Fydd-71" value="" style="ellipse;whiteSpace=wrap;html=1;aspect=fixed;" vertex="1" parent="MlxZKVlWyXe7RY-4Fydd-77">
          <mxGeometry y="20" width="20" height="20" as="geometry" />
        </mxCell>
        <mxCell id="MlxZKVlWyXe7RY-4Fydd-72" value="" style="ellipse;whiteSpace=wrap;html=1;aspect=fixed;" vertex="1" parent="MlxZKVlWyXe7RY-4Fydd-77">
          <mxGeometry x="40" y="20" width="20" height="20" as="geometry" />
        </mxCell>
        <mxCell id="MlxZKVlWyXe7RY-4Fydd-73" value="" style="ellipse;whiteSpace=wrap;html=1;aspect=fixed;" vertex="1" parent="MlxZKVlWyXe7RY-4Fydd-77">
          <mxGeometry x="10" y="3" width="20" height="20" as="geometry" />
        </mxCell>
        <mxCell id="MlxZKVlWyXe7RY-4Fydd-74" value="" style="ellipse;whiteSpace=wrap;html=1;aspect=fixed;" vertex="1" parent="MlxZKVlWyXe7RY-4Fydd-77">
          <mxGeometry x="30" y="3" width="20" height="20" as="geometry" />
        </mxCell>
        <mxCell id="MlxZKVlWyXe7RY-4Fydd-75" value="" style="ellipse;whiteSpace=wrap;html=1;aspect=fixed;" vertex="1" parent="MlxZKVlWyXe7RY-4Fydd-77">
          <mxGeometry x="30" y="37" width="20" height="20" as="geometry" />
        </mxCell>
        <mxCell id="MlxZKVlWyXe7RY-4Fydd-76" value="" style="ellipse;whiteSpace=wrap;html=1;aspect=fixed;" vertex="1" parent="MlxZKVlWyXe7RY-4Fydd-77">
          <mxGeometry x="10" y="37" width="20" height="20" as="geometry" />
        </mxCell>
        <mxCell id="MlxZKVlWyXe7RY-4Fydd-70" value="" style="ellipse;whiteSpace=wrap;html=1;aspect=fixed;" vertex="1" parent="MlxZKVlWyXe7RY-4Fydd-77">
          <mxGeometry x="20" y="20" width="20" height="20" as="geometry" />
        </mxCell>
        <mxCell id="MlxZKVlWyXe7RY-4Fydd-78" value="+" style="text;html=1;align=center;verticalAlign=middle;whiteSpace=wrap;rounded=0;" vertex="1" parent="1">
          <mxGeometry x="140" y="245" width="60" height="30" as="geometry" />
        </mxCell>
        <mxCell id="MlxZKVlWyXe7RY-4Fydd-79" value="-" style="text;html=1;align=center;verticalAlign=middle;whiteSpace=wrap;rounded=0;" vertex="1" parent="1">
          <mxGeometry x="150" y="257" width="60" height="30" as="geometry" />
        </mxCell>
        <mxCell id="MlxZKVlWyXe7RY-4Fydd-85" value="+" style="text;html=1;align=center;verticalAlign=middle;whiteSpace=wrap;rounded=0;" vertex="1" parent="1">
          <mxGeometry x="418" y="245" width="60" height="30" as="geometry" />
        </mxCell>
        <mxCell id="MlxZKVlWyXe7RY-4Fydd-86" value="+" style="text;html=1;align=center;verticalAlign=middle;whiteSpace=wrap;rounded=0;" vertex="1" parent="1">
          <mxGeometry x="430" y="234" width="60" height="30" as="geometry" />
        </mxCell>
        <mxCell id="MlxZKVlWyXe7RY-4Fydd-89" value="" style="endArrow=classic;html=1;rounded=0;exitX=1;exitY=0.5;exitDx=0;exitDy=0;entryX=0;entryY=0.5;entryDx=0;entryDy=0;" edge="1" parent="1" source="MlxZKVlWyXe7RY-4Fydd-4" target="MlxZKVlWyXe7RY-4Fydd-83">
          <mxGeometry width="50" height="50" relative="1" as="geometry">
            <mxPoint x="375" y="249" as="sourcePoint" />
            <mxPoint x="402" y="260" as="targetPoint" />
          </mxGeometry>
        </mxCell>
        <mxCell id="MlxZKVlWyXe7RY-4Fydd-100" value="U&lt;sub&gt;SM&lt;/sub&gt;" style="edgeLabel;html=1;align=center;verticalAlign=middle;resizable=0;points=[];" vertex="1" connectable="0" parent="MlxZKVlWyXe7RY-4Fydd-89">
          <mxGeometry x="-0.3036" y="-1" relative="1" as="geometry">
            <mxPoint x="12" y="11" as="offset" />
          </mxGeometry>
        </mxCell>
        <mxCell id="MlxZKVlWyXe7RY-4Fydd-90" value="" style="edgeStyle=orthogonalEdgeStyle;rounded=0;orthogonalLoop=1;jettySize=auto;html=1;" edge="1" parent="1" source="MlxZKVlWyXe7RY-4Fydd-83" target="MlxZKVlWyXe7RY-4Fydd-5">
          <mxGeometry relative="1" as="geometry" />
        </mxCell>
        <mxCell id="MlxZKVlWyXe7RY-4Fydd-104" value="U" style="edgeLabel;html=1;align=center;verticalAlign=middle;resizable=0;points=[];" vertex="1" connectable="0" parent="MlxZKVlWyXe7RY-4Fydd-90">
          <mxGeometry x="0.0964" relative="1" as="geometry">
            <mxPoint x="-4" y="12" as="offset" />
          </mxGeometry>
        </mxCell>
        <mxCell id="MlxZKVlWyXe7RY-4Fydd-92" value="" style="endArrow=classic;html=1;rounded=0;exitX=0.5;exitY=1;exitDx=0;exitDy=0;entryX=0.5;entryY=0;entryDx=0;entryDy=0;" edge="1" parent="1" source="MlxZKVlWyXe7RY-4Fydd-69" target="MlxZKVlWyXe7RY-4Fydd-83">
          <mxGeometry width="50" height="50" relative="1" as="geometry">
            <mxPoint x="468" y="217" as="sourcePoint" />
            <mxPoint x="518" y="167" as="targetPoint" />
          </mxGeometry>
        </mxCell>
        <mxCell id="MlxZKVlWyXe7RY-4Fydd-101" value="U&lt;sub&gt;Adapt&lt;/sub&gt;" style="edgeLabel;html=1;align=center;verticalAlign=middle;resizable=0;points=[];" vertex="1" connectable="0" parent="MlxZKVlWyXe7RY-4Fydd-92">
          <mxGeometry x="0.0514" y="-1" relative="1" as="geometry">
            <mxPoint x="19" as="offset" />
          </mxGeometry>
        </mxCell>
        <mxCell id="MlxZKVlWyXe7RY-4Fydd-93" value="" style="endArrow=none;dashed=1;html=1;dashPattern=1 3;strokeWidth=2;rounded=0;exitX=1;exitY=0.5;exitDx=0;exitDy=0;" edge="1" parent="1" source="MlxZKVlWyXe7RY-4Fydd-4">
          <mxGeometry width="50" height="50" relative="1" as="geometry">
            <mxPoint x="410" y="254" as="sourcePoint" />
            <mxPoint x="460" y="200" as="targetPoint" />
          </mxGeometry>
        </mxCell>
        <mxCell id="MlxZKVlWyXe7RY-4Fydd-102" value="Learning Signal" style="edgeLabel;html=1;align=center;verticalAlign=middle;resizable=0;points=[];rotation=329;" vertex="1" connectable="0" parent="MlxZKVlWyXe7RY-4Fydd-93">
          <mxGeometry x="0.1819" relative="1" as="geometry">
            <mxPoint x="-9" y="-4" as="offset" />
          </mxGeometry>
        </mxCell>
        <mxCell id="MlxZKVlWyXe7RY-4Fydd-96" value="" style="endArrow=classic;html=1;rounded=0;exitX=0.5;exitY=0;exitDx=0;exitDy=0;entryX=1;entryY=0.5;entryDx=0;entryDy=0;" edge="1" parent="1" source="MlxZKVlWyXe7RY-4Fydd-5" target="MlxZKVlWyXe7RY-4Fydd-72">
          <mxGeometry width="50" height="50" relative="1" as="geometry">
            <mxPoint x="600" y="190" as="sourcePoint" />
            <mxPoint x="650" y="140" as="targetPoint" />
          </mxGeometry>
        </mxCell>
        <mxCell id="MlxZKVlWyXe7RY-4Fydd-103" value="Basis Input" style="edgeLabel;html=1;align=center;verticalAlign=middle;resizable=0;points=[];rotation=35;" vertex="1" connectable="0" parent="MlxZKVlWyXe7RY-4Fydd-96">
          <mxGeometry x="-0.0161" relative="1" as="geometry">
            <mxPoint x="14" y="-1" as="offset" />
          </mxGeometry>
        </mxCell>
        <mxCell id="MlxZKVlWyXe7RY-4Fydd-106" value="Neuron Population" style="text;html=1;align=center;verticalAlign=middle;whiteSpace=wrap;rounded=0;" vertex="1" parent="1">
          <mxGeometry x="430" y="100" width="60" height="30" as="geometry" />
        </mxCell>
      </root>
    </mxGraphModel>
  </diagram>
</mxfile>
